<svg width="148.5" height="145.1" xmlns="http://www.w3.org/2000/svg" xml:space="preserve" enable-background="new 0 0 148.5 145.1" version="1.1">

 <g>
  <title>Layer 1</title>
  <g id="svg_1">
   <path id="svg_2" d="m74.4,0c-41,0 -74.4,33.3 -74.4,74.4c0,32.9 21.3,60.8 50.9,70.6c3.7,0.7 5.1,-1.6 5.1,-3.6c0,-1.8 -0.1,-7.6 -0.1,-13.9c-20.7,4.5 -25.1,-8.8 -25.1,-8.8c-3.4,-8.6 -8.3,-10.9 -8.3,-10.9c-6.8,-4.6 0.5,-4.5 0.5,-4.5c7.5,0.5 11.4,7.7 11.4,7.7c6.6,11.4 17.4,8.1 21.6,6.2c0.7,-4.8 2.6,-8.1 4.7,-9.9c-16.5,-1.9 -33.9,-8.3 -33.9,-36.8c0,-8.1 2.9,-14.8 7.7,-20c-0.8,-1.9 -3.3,-9.4 0.7,-19.7c0,0 6.2,-2 20.5,7.6c5.9,-1.6 12.3,-2.5 18.6,-2.5s12.7,0.9 18.6,2.5c14.2,-9.6 20.4,-7.6 20.4,-7.6c4,10.2 1.5,17.8 0.7,19.7c4.8,5.2 7.7,11.8 7.7,20c0,28.6 -17.4,34.9 -34,36.7c2.7,2.3 5,6.8 5,13.8c0,10 -0.1,18 -0.1,20.4c0,2 1.3,4.3 5.1,3.6c29.5,-9.8 50.8,-37.7 50.8,-70.6c0.3,-41.1 -33,-74.4 -74.1,-74.4z" fill="#191717"/>
   <path id="svg_3" d="m28.2,106.8c-0.2,0.4 -0.7,0.5 -1.3,0.2c-0.5,-0.2 -0.8,-0.7 -0.7,-1.1c0.2,-0.4 0.7,-0.5 1.3,-0.2c0.6,0.2 0.9,0.7 0.7,1.1l0,0z" fill="#191717"/>
   <path id="svg_4" d="m31.2,110.2c-0.4,0.3 -1,0.2 -1.5,-0.3s-0.6,-1.2 -0.2,-1.5c0.4,-0.3 1,-0.2 1.5,0.3c0.5,0.4 0.6,1.1 0.2,1.5l0,0z" fill="#191717"/>
   <path id="svg_5" d="m34.2,114.5c-0.5,0.3 -1.2,0 -1.7,-0.6c-0.5,-0.7 -0.5,-1.5 0,-1.8s1.2,0 1.7,0.6c0.4,0.6 0.4,1.4 0,1.8l0,0z" fill="#191717"/>
   <path id="svg_6" d="m38.2,118.6c-0.4,0.4 -1.3,0.3 -1.9,-0.3c-0.7,-0.6 -0.8,-1.5 -0.4,-1.9c0.4,-0.5 1.3,-0.3 1.9,0.3c0.6,0.6 0.8,1.4 0.4,1.9l0,0z" fill="#191717"/>
   <path id="svg_7" d="m43.7,121c-0.2,0.6 -1,0.8 -1.9,0.6c-0.8,-0.3 -1.4,-0.9 -1.2,-1.5s1,-0.9 1.9,-0.6c0.9,0.2 1.4,0.9 1.2,1.5l0,0z" fill="#191717"/>
   <path id="svg_8" d="m49.8,121.4c0,0.6 -0.7,1.1 -1.6,1.1c-0.9,0 -1.6,-0.5 -1.6,-1.1s0.7,-1.1 1.6,-1.1c0.9,0 1.6,0.5 1.6,1.1l0,0z" fill="#191717"/>
   <path id="svg_9" d="m55.5,120.5c0.1,0.6 -0.5,1.2 -1.4,1.4c-0.9,0.2 -1.7,-0.2 -1.8,-0.8c-0.1,-0.6 0.5,-1.2 1.4,-1.4c0.9,-0.2 1.7,0.2 1.8,0.8l0,0z" fill="#191717"/>
  </g>
  <text xml:space="preserve" text-anchor="start" font-family="Noto Sans JP" font-size="24" id="svg_12" y="67.21648" x="47.91496" stroke-width="0" stroke="#000" fill="#000000">App</text>
 </g>
</svg>